<svg xmlns="http://www.w3.org/2000/svg" width="80" height="80" fill="none" viewBox="0 0 100 100"><path fill="none" stroke="currentColor" stroke-linejoin="round" stroke-width="2" d="M50 10 L75 25 L80 50 L75 75 L60 90 L50 92 L40 90 L25 75 L20 50 L25 25 Z"/><path fill="none" stroke="currentColor" stroke-linejoin="round" stroke-width="2" d="M30 40 L40 35 L45 40 L40 50 L30 48 Z"/><path fill="none" stroke="currentColor" stroke-linejoin="round" stroke-width="2" d="M70 40 L60 35 L55 40 L60 50 L70 48 Z"/><path fill="none" stroke="currentColor" stroke-linejoin="round" stroke-width="2" d="M50 45 L45 60 L50 65 L55 60 Z"/><path fill="none" stroke="currentColor" stroke-linecap="round" stroke-width="2" d="M35 72 L45 75 L50 73 L55 75 L65 72"/><line x1="50" x2="50" y1="18" y2="28" stroke="currentColor" stroke-width="2"/><line x1="40" x2="40" y1="22" y2="28" stroke="currentColor" stroke-width="2"/><line x1="60" x2="60" y1="22" y2="28" stroke="currentColor" stroke-width="2"/></svg>